Coordinates

Units are S.I. units (second, meters, Newtons, ...)
If the header above contains a line with 'inDegrees', this indicates whether rotational values are in degrees (yes) or radians (no).

inDegrees=no
nColumns=21
nRows=12
DataType=double
version=3
OpenSimVersion=4.6-2026-03-31-d6972f9e6
endheader
time	/jointset/ground_pelvis/pelvis_tilt/value	/jointset/ground_pelvis/pelvis_list/value	/jointset/ground_pelvis/pelvis_rotation/value	/jointset/ground_pelvis/pelvis_tx/value	/jointset/ground_pelvis/pelvis_ty/value	/jointset/ground_pelvis/pelvis_tz/value	/jointset/hip_r/hip_flexion_r/value	/jointset/hip_r/hip_adduction_r/value	/jointset/hip_r/hip_rotation_r/value	/jointset/walker_knee_r/knee_angle_r/value	/jointset/patellofemoral_r/knee_angle_r_beta/value	/jointset/ankle_r/ankle_angle_r/value	/jointset/subtalar_r/subtalar_angle_r/value	/jointset/hip_l/hip_flexion_l/value	/jointset/hip_l/hip_adduction_l/value	/jointset/hip_l/hip_rotation_l/value	/jointset/walker_knee_l/knee_angle_l/value	/jointset/patellofemoral_l/knee_angle_l_beta/value	/jointset/ankle_l/ankle_angle_l/value	/jointset/subtalar_l/subtalar_angle_l/value
147.496	0.001433950071673532	0.02437297185164239	-0.09353734113096787	1.004604269688663	1.034958693770007	-0.29871598793274	-0.2886189428494854	-0.01417464775749992	0.1263595283070107	0.2210580598830061	0.2210580598458432	-0.1676123544442207	-0.3328020454590091	0.6440533960981482	-0.02441702772174066	0.01567238936578091	1.235869919974735	1.235869919772437	-0.4006695789074621	-0.5452049937833795
147.5	-0.004457358978125658	0.03071763383806314	-0.09166181025237927	1.005309434307522	1.037100750440795	-0.2990923195397195	-0.2977338975530767	-0.02289126124236969	0.1180021704039428	0.2078538472933801	0.2078538471612432	-0.2005726576488597	-0.3240440718473921	0.6477883635525821	-0.01640289942146382	0.01222195565462985	1.198963018909466	1.198963018710274	-0.3972183340783894	-0.5428089874235131
147.504	-0.01035405108515626	0.03666003088691904	-0.09000923354124371	1.00604714051489	1.039222533004964	-0.2994802523114586	-0.3058410432951697	-0.03127194368913433	0.1091722571161527	0.1961793262859824	0.1961793260642131	-0.2332070879737825	-0.3143581080695987	0.65037528189425	-0.008771937676800127	0.009069035422624726	1.160565423706362	1.160565423512874	-0.3935469141640269	-0.5396694369996136
147.508	-0.01619967992297712	0.04215193528610891	-0.08861038822513918	1.006811311392895	1.041313245201384	-0.2998738405598681	-0.3129821097204656	-0.03927897659404368	0.09997105040732751	0.186109898543903	0.1861098982415503	-0.2652571580335769	-0.303901733582612	0.6517926684101678	-0.001597711233431886	0.00623370467010639	1.120763962369825	1.120763962186955	-0.3896708281122012	-0.5356849324984418
147.512	-0.02194223122410448	0.04714761402638428	-0.08748883572410912	1.007595703907271	1.043361271370183	-0.3002673612065658	-0.3192011263304313	-0.04687354649993989	0.09051127115444604	0.1777133500742998	0.1777133497035018	-0.2964742577130353	-0.2928689595542126	0.6520332278741137	0.005049219897938643	0.003727652502213144	1.079663984720258	1.07966398455494	-0.3856141805673809	-0.5307632646508709
147.516	-0.02753451871697859	0.05160508199051773	-0.08666028365800209	1.008394025505244	1.045354481956498	-0.3006554974853479	-0.3245441921390232	-0.05401667976915625	0.08091636501858429	0.1710491583339892	0.1710491579095432	-0.3266234246451918	-0.2814851988129671	0.6511040349006222	0.0111033072062271	0.001552879966038627	1.037389898046994	1.037389897908065	-0.38140992774452	-0.5248236917266254
147.52	-0.03293427120446119	0.05548736775266917	-0.08613224577563154	1.009200058285388	1.04728057402839	-0.3010334869718703	-0.3290594886852244	-0.06067031127067878	0.07131926313210053	0.1661677010984226	0.1661677006375247	-0.3554868445251622	-0.2700010033662718	0.6490262318236419	0.01650594146001287	-0.0002993605131152322	0.9940854291430928	0.9940854290415463	-0.377099858466759	-0.5177991176718351
147.524	-0.03810393449398102	0.05876374485184634	-0.08590400164504133	1.01000778562224	1.049127428978337	-0.3013972317286678	-0.3327974484535484	-0.06679844219618081	0.06186056334375725	0.1631094826874147	0.163109482209464	-0.3828670204607674	-0.258684731333223	0.6458342944869995	0.02120725863053023	-0.00184925163554748	0.9499136221965723	0.9499136221459039	-0.3727342304150197	-0.5096381599039359
147.528	-0.04301021475747658	0.06141086751549831	-0.08596684116095388	1.010811515585354	1.050883469709923	-0.3017433698335301	-0.3358109995337778	-0.07236832364801758	0.05268610274802093	0.1619044891819679	0.1619044887083559	-0.4085895678235372	-0.2478143692440653	0.6415749178043705	0.02516776383741711	-0.003128600036575245	0.9050565748256418	0.9050565748417143	-0.3683710159527842	-0.5003070971162986
147.532	-0.04762344522146745	0.06341373614680358	-0.08630457282168036	1.011605994853162	1.052537996837425	-0.3020693090338298	-0.3381557524544582	-0.07735158457825524	0.04394396740017312	0.1625717907738678	0.162571790327629	-0.4325055884297097	-0.2376687951936397	0.6363056337609498	0.02835969280234253	-0.004180416570892171	0.8597149145637437	0.8597149146637084	-0.364074728452175	-0.4897916610183043
147.536	-0.05191690200667672	0.06476642067897158	-0.08689427004303263	1.012386506458666	1.054081482677597	-0.3023732257353366	-0.3398899584184277	-0.08172522472361575	0.035781054082116	0.165119500524365	0.1651195001295152	-0.4544935779095799	-0.2285188119636739	0.6300933187990878	0.03076803509893425	-0.005057794759036054	0.8141070124161773	0.8141070126164704	-0.3599148109486003	-0.4780986017715949
147.54	-0.05586618545341466	0.06547249631962679	-0.08770721990541963	1.013148945561711	1.055505805367435	-0.3026540346167272	-0.3410741062161322	-0.08547241966166846	0.02833933792649329	0.1695451565291306	0.1695451562096819	-0.4744608394322798	-0.220618320988793	0.6230127248081553	0.0323911760140649	-0.005822035772942873	0.7684679113413876	0.7684679116551916	-0.3559635841712009	-0.4652569450173047
